{"title":"The.Lance.Armstrong.Story - Stop.at.Nothing.2014.WEBRiP.x264.ReL","uid":11325131,"size":1089111690,"categoryP":"video","categoryS":"movies","magnet":"?xt=urn:btih:1e3b2388d99efaba43bb2e7993902652fca22a91&amp;dn=The.Lance.Armstrong.Story+-+Stop.at.Nothing.2014.WEBRiP.x264.ReL&amp;tr=udp%3A%2F%2Ftracker.openbittorrent.com%3A80&amp;tr=udp%3A%2F%2Fopen.demonii.com%3A1337&amp;tr=udp%3A%2F%2Ftracker.coppersurfer.tk%3A6969&amp;tr=udp%3A%2F%2Fexodus.desync.com%3A6969","seeders":1,"leechers":2,"uploader":"TvTeam","files":4,"time":1414623414,"description":" &lt;a href=&quot;http://www.torrenting.com&quot; rel=&quot;nofollow&quot; target=&quot;_NEW&quot;&gt;http://www.torrenting.com&lt;/a&gt;\n\nSign up is OPEN - for time being. Come and have fun.\n\n\n------------------------------------------------------------------------P0STER\n[IMG]http://lookpic.com/O/i2/1329/frRR2LSU.jpeg[/IMG]\n\niMDB: http://www.imdb.com/title/tt3511812/\n\nGeneral\nComplete name                            : The.Lance.Armstrong.Story - Stop.at.Nothing.2014.WEBRiP.x264.ReLeNTLesS.mp4\nFormat                                   : MPEG-4\nFormat profile                           : Base Media\nCodec ID                                 : isom\nFile size                                : 1.01 GiB\nDuration                                 : 1h 36mn\nOverall bit rate mode                    : Constant\nOverall bit rate                         : 1 503 Kbps\nMovie name                               : 2014-2015: 2. The Lance Armstrong Story - Stop at Nothing\nAlbum                                    : Storyville\nAlbum/Performer                          : BBC TV\nPart/Position                            : 1\nTrack name/Position                      : 2\nGrouping                                 : Sport,Cycling,Films\nPerformer                                : BBC Four\nComposer                                 : BBC iPlayer\nGenre                                    : Sport\nContentType                              : Short Film\nDescription                              : Film telling the story of the man behind the greatest fraud in recent sporting history.\nRecorded date                            : 2014-07-06T21:00:00+01:00\nTagged date                              : UTC 2014-10-27 23:57:54\nWriting application                      : Lavf54.63.104\n\nVideo\nID                                       : 1\nFormat                                   : AVC\nFormat/Info                              : Advanced Video Codec\nFormat profile                           : &lt;a class=&quot;__cf_email__&quot; href=&quot;/cdn-cgi/l/email-protection&quot; data-cfemail=&quot;703d11191e303c435e41&quot;&gt;[email&amp;#160;protected]&lt;/a&gt;&lt;script cf-hash='f9e31' type=&quot;text/javascript&quot;&gt;\n/* &lt;![CDATA[ */!function(){try{var t=&quot;currentScript&quot;in document?document.currentScript:function(){for(var t=document.getElementsByTagName(&quot;script&quot;),e=t.length;e--;)if(t[e].getAttribute(&quot;cf-hash&quot;))return t[e]}();if(t&amp;&amp;t.previousSibling){var e,r,n,i,c=t.previousSibling,a=c.getAttribute(&quot;data-cfemail&quot;);if(a){for(e=&quot;&quot;,r=parseInt(a.substr(0,2),16),n=2;a.length-n;n+=2)i=parseInt(a.substr(n,2),16)^r,e+=String.fromCharCode(i);e=document.createTextNode(e),c.parentNode.replaceChild(e,c)}}}catch(u){}}();/* ]]&gt; */&lt;/script&gt;\nFormat settings, CABAC                   : Yes\nFormat settings, ReFrames                : 2 frames\nCodec ID                                 : avc1\nCodec ID/Info                            : Advanced Video Coding\nDuration                                 : 1h 36mn\nBit rate mode                            : Constant\nBit rate                                 : 1 404 Kbps\nWidth                                    : 832 pixels\nHeight                                   : 468 pixels\nDisplay aspect ratio                     : 16:9\nFrame rate mode                          : Constant\nFrame rate                               : 25.000 fps\nColor space                              : YUV\nChroma subsampling                       : 4:2:0\nBit depth                                : 8 bits\nScan type                                : Progressive\nBits/(Pixel*Frame)                       : 0.144\nStream size                              : 970 MiB (93%)\n\nAudio\nID                                       : 2\nFormat                                   : AAC\nFormat/Info                              : Advanced Audio Codec\nFormat profile                           : LC\nCodec ID                                 : 40\nDuration                                 : 1h 36mn\nBit rate mode                            : Constant\nBit rate                                 : 93.5 Kbps\nChannel(s)                               : 2 channels\nChannel positions                        : Front: L R\nSampling rate                            : 48.0 KHz\nCompression mode                         : Lossy\nStream size                              : 64.6 MiB (6%)\nSource                                       : BBC \n\nPL0T\nYou think you know this story? You don't. From the producers of Academy Award winning film, ONE DAY IN SEPTEMBER, and BAFTA Award winning Director Alex Holmes, this documentary is an intimate but explosive portrait of the man behind the greatest fraud in sporting history. Lance Armstrong enriched himself by cheating his fans, his sport and the truth. But the former friends whose lives and careers he destroyed, would prove to be his nemesis.\n\nCAST\nDirector: Alex Holmes\nWriter: Alex Holmes\nStars: Reed Albergotti, Betsy Andreu, Frankie Andreu \n\nSCREENS\n[IMG]http://lookpic.com/O/i2/457/DCvtT5fz.jpeg[/IMG]\n\nTRAiLER\n\nGREETZ\n\nM0RPH, M00SE, MiLLENiUM, Anonymous, TuX, \n\nACAB, KingStoner, FooKas, 4PlayHD, \n\nGodFather, Cld.... \n\nKeep up the good work guyz","torrent":{"xt":"urn:btih:1e3b2388d99efaba43bb2e7993902652fca22a91","amp;dn":"The.Lance.Armstrong.Story+-+Stop.at.Nothing.2014.WEBRiP.x264.ReL","amp;tr":["udp%3A%2F%2Ftracker.openbittorrent.com%3A80","udp%3A%2F%2Fopen.demonii.com%3A1337","udp%3A%2F%2Ftracker.coppersurfer.tk%3A6969","udp%3A%2F%2Fexodus.desync.com%3A6969"],"infoHash":"1e3b2388d99efaba43bb2e7993902652fca22a91","infoHashBuffer":{"type":"Buffer","data":[30,59,35,136,217,158,250,186,67,187,46,121,147,144,38,82,252,162,42,145]},"announce":[],"urlList":[]}}